<svg xmlns="http://www.w3.org/2000/svg" viewBox="0 0 362.8 103.7">
    <path d="M0 0h362.8v103.7H0z"/>
    <path fill="#fff" d="M346.6 74.4c-.7.2-1.3.3-1.9.3-2.1 0-3.1-.9-3.1-3.5V51.5c0-10.4-8.3-15.4-18-15.4-7.4 0-11.5.9-19.4 4.1l-1.8 10.4 10.4 1.1 1.5-5.1c2.1-1.1 4.2-1.3 6.9-1.3 7.3 0 7.4 5.5 7.4 10.2V57c-2.3-.3-4.9-.4-7.4-.4-10.4 0-21.1 2.6-21.1 13.8 0 9.5 7.4 13 14 13 7.3 0 12-4.4 14.6-9.1.6 5.5 3.9 9.1 10 9.1 2.8 0 5.7-.8 8.2-2.1l-.3-6.9zm-27.9-.3c-3.9 0-5.3-2.3-5.3-5.2 0-4.9 4-6.2 8.7-6.2 2.1 0 4.4.3 6.5.6-.4 7.5-5.3 10.8-9.9 10.8zm-17.4-60.9l-19.6 69.2h-12.8l19.6-69.2h12.8zm-26.4 0l-19.6 69.2h-12.8l19.6-69.2h12.8zM220.4 37H234v16.3h-13.6V37zm0 29.1H234v16.3h-13.6V66.1zm-19.8-.6l10.3 1-2.8 15.9h-39.7l-1.3-6.8 25-28.7h-14.2l-2 7-9.4-1 1.6-15.9H208l1 6.8-25.2 28.7h14.7l2.1-7zm-65-29.4c-16.3 0-24.4 11-24.4 24.3 0 14.5 9.7 23 23.7 23 14.5 0 25-9.2 25-23.7-.1-12.6-8-23.6-24.3-23.6zm-.3 37.3c-7 0-10.7-6-10.7-13.9 0-8.6 4.1-13.5 10.8-13.5 6.1 0 11.1 4.1 11.1 13.3-.1 8.7-4.5 14.1-11.2 14.1zm-35.8-.9h6v9.9h-19V56.8c0-7.9-2.6-10.9-7.7-10.9-6.2 0-8.8 4.4-8.8 10.8v15.8h6v9.9H57V56.8c0-7.9-2.6-10.9-7.8-10.9-6.2 0-8.8 4.4-8.8 10.8v15.8h8.7v9.9H21.5v-9.9h6V46.8h-6v-9.9h19v6.8c2.7-4.8 7.4-7.7 13.8-7.7 6.5 0 12.6 3.1 14.8 9.8 2.5-6 7.6-9.8 14.8-9.8 8.2 0 15.6 4.9 15.6 15.7v20.8z"/>
</svg>
